<?xml version="1.0" standalone="no"?>
<!DOCTYPE svg PUBLIC "-//W3C//DTD SVG 20010904//EN"
 "http://www.w3.org/TR/2001/REC-SVG-20010904/DTD/svg10.dtd">
<svg version="1.0" xmlns="http://www.w3.org/2000/svg"
 width="256.000000pt" height="256.000000pt" viewBox="0 0 256.000000 256.000000"
 preserveAspectRatio="xMidYMid meet">
<metadata>
Created by potrace 1.11, written by Peter Selinger 2001-2013
</metadata>
<g transform="translate(0.000000,256.000000) scale(0.100000,-0.100000)"
fill="#000000" stroke="none">
<path d="M812 2463 c-43 -21 -80 -66 -88 -107 -5 -29 -11 -35 -40 -41 -50 -9
-103 -59 -116 -111 -11 -39 -16 -44 -54 -53 -50 -13 -100 -65 -109 -113 -3
-18 -5 -461 -3 -985 3 -943 3 -952 24 -979 11 -15 33 -37 48 -48 27 -21 39
-21 664 -24 431 -2 649 0 674 8 45 13 95 68 103 114 6 29 12 35 41 41 50 9
103 59 116 111 10 36 17 44 42 50 44 9 96 51 112 90 12 28 14 162 14 771 l-1
738 -37 41 c-20 22 -56 63 -79 90 -23 27 -51 60 -63 74 -12 14 -41 47 -64 74
-22 27 -46 54 -51 60 -6 6 -23 27 -39 46 -16 19 -55 65 -88 103 l-60 67 -457
0 c-399 0 -460 -2 -489 -17z m869 -275 c1 -240 1 -242 26 -277 48 -63 58 -66
264 -69 l189 -4 0 -684 c0 -725 0 -730 -45 -748 -9 -3 -293 -6 -631 -6 -664 0
-664 0 -678 52 -3 13 -6 445 -6 961 l0 938 26 24 27 25 413 0 414 0 1 -212z
m289 -73 l162 -190 -150 -3 c-163 -3 -197 4 -212 43 -6 15 -10 108 -10 208 l0
182 24 -25 c13 -14 97 -110 186 -215z m-1249 -767 c0 -491 2 -902 4 -912 5
-26 35 -65 69 -90 27 -21 39 -21 617 -24 455 -2 589 -5 589 -15 0 -7 -9 -23
-20 -37 l-19 -25 -634 -3 c-614 -2 -635 -2 -658 17 l-24 19 -3 954 -2 955 24
26 c14 15 32 27 41 27 13 0 15 -94 16 -892z m-159 -177 c3 -905 3 -910 24
-938 11 -15 36 -38 53 -50 l33 -22 581 -1 c319 0 583 -2 586 -5 9 -10 -24 -58
-48 -66 -13 -6 -290 -8 -648 -7 l-625 3 -19 24 c-18 22 -19 53 -19 970 0 881
2 947 18 967 15 20 34 31 54 33 4 1 9 -408 10 -908z"/>
</g>
</svg>
